<?xml version="1.0" encoding="utf-8"?>
<svg version="1.1" id="Layer_1" xmlns="http://www.w3.org/2000/svg" x="0px" y="0px" viewBox="0 0 128 128" style="enable-background:new 0 0 128 128;">
  <style type="text/css">
	.st0{fill:#00739A;}
	.st1{fill:#C4C6C7;}
	.st2{fill:#67BAAF;}
</style>
<rect width="100%" height="100%" fill="#ffffff"/>
  <g transform="matrix(1, 0, 0, 1, 93.160057, 77.994446)">
    <path class="st1" d="M -62.767 30.888 L -63.22 32.488 C -63.22 33.288 -63.612 33.988 -62.812 33.988 L -4.893 33.988 C -4.093 33.988 -3.393 33.288 -3.393 32.488 L -3.393 -61.912 C -3.393 -62.712 -4.093 -63.412 -4.893 -63.412 C -5.693 -63.412 -6.393 -62.712 -6.393 -61.912 L -6.393 30.888 L -54.593 30.888 L -54.593 -33.412 C -54.593 -34.212 -55.293 -34.912 -56.093 -34.912 C -56.893 -34.912 -57.593 -34.212 -57.593 -33.412 L -57.593 30.888 L -62.767 30.888 Z" style="stroke-width: 1px;"/>
    <g transform="matrix(1, 0, 0, 1, -238.093048, -206.911957)">
      <g>
        <path class="st2" d="M165.7,192c-0.3,0-0.6-0.1-0.9-0.3c-0.5-0.5-0.6-1.3-0.1-1.9l16.3-18.7c0.2-0.3,0.6-0.5,1-0.5l0,0 c0.4,0,0.7,0.2,1,0.5l16.3,18.7c0.5,0.5,0.4,1.4-0.1,1.9c-0.5,0.5-1.4,0.4-1.9-0.1L181.9,174l-15.3,17.6 C166.4,191.8,166,192,165.7,192z"/>
      </g>
      <g>
        <path class="st2" d="M198.2,203c-0.4,0-0.7-0.2-1-0.5L181.9,185l-15.3,17.6c-0.5,0.6-1.3,0.6-1.9,0.1c-0.5-0.5-0.6-1.3-0.1-1.9 l16.3-18.7c0.2-0.3,0.6-0.5,1-0.5l0,0c0.4,0,0.7,0.2,1,0.5l16.3,18.7c0.5,0.5,0.4,1.4-0.1,1.9C198.8,202.9,198.5,203,198.2,203 z"/>
      </g>
      <g>
        <path class="st2" d="M165.7,214c-0.3,0-0.6-0.1-0.9-0.3c-0.5-0.5-0.6-1.3-0.1-1.9l16.3-18.7c0.2-0.3,0.6-0.5,1-0.5l0,0 c0.4,0,0.7,0.2,1,0.5l16.3,18.7c0.5,0.5,0.4,1.4-0.1,1.9c-0.5,0.5-1.4,0.4-1.9-0.1L181.9,196l-15.3,17.6 C166.4,213.9,166,214,165.7,214z"/>
      </g>
      <g>
        <path class="st2" d="M198.2,225.1c-0.4,0-0.7-0.2-1-0.5L181.9,207l-15.3,17.6c-0.5,0.6-1.3,0.6-1.9,0.1 c-0.5-0.5-0.6-1.3-0.1-1.9l16.3-18.7c0.2-0.3,0.6-0.5,1-0.5l0,0c0.4,0,0.7,0.2,1,0.5l16.3,18.7c0.5,0.5,0.4,1.4-0.1,1.9 C198.8,225,198.5,225.1,198.2,225.1z"/>
      </g>
    </g>
    <g transform="matrix(1, 0, 0, 1, -238.093048, -206.911957)">
      <g>
        <path class="st2" d="M255.7,171.1c-0.4,0-0.8-0.2-1-0.5l-21.5-25.8l-21.5,25.8c-0.5,0.6-1.3,0.6-1.9,0.2 c-0.6-0.5-0.6-1.3-0.2-1.9l22.5-27c0.5-0.6,1.5-0.6,2,0l22.5,27c0.5,0.6,0.4,1.4-0.2,1.9C256.3,171,256,171.1,255.7,171.1z"/>
      </g>
      <g>
        <path class="st2" d="M255.7,184.6c-0.4,0-0.8-0.2-1-0.5l-21.5-25.8l-21.5,25.8c-0.5,0.6-1.3,0.6-1.9,0.2 c-0.6-0.5-0.6-1.3-0.2-1.9l22.5-27c0.5-0.6,1.5-0.6,2,0l22.5,27c0.5,0.6,0.4,1.4-0.2,1.9C256.3,184.5,256,184.6,255.7,184.6z"/>
      </g>
      <g>
        <path class="st2" d="M255.7,198.1c-0.4,0-0.8-0.2-1-0.5l-21.5-25.8l-21.5,25.8c-0.5,0.6-1.3,0.6-1.9,0.2 c-0.6-0.5-0.6-1.3-0.2-1.9l22.5-27c0.5-0.6,1.5-0.6,2,0l22.5,27c0.5,0.6,0.4,1.4-0.2,1.9C256.3,198,256,198.1,255.7,198.1z"/>
      </g>
      <g>
        <path class="st2" d="M255.7,211.6c-0.4,0-0.8-0.2-1-0.5l-21.5-25.8l-21.5,25.8c-0.5,0.6-1.3,0.6-1.9,0.2 c-0.6-0.5-0.6-1.3-0.2-1.9l22.5-27c0.5-0.6,1.5-0.6,2,0l22.5,27c0.5,0.6,0.4,1.4-0.2,1.9C256.3,211.5,256,211.6,255.7,211.6z"/>
      </g>
      <g>
        <path class="st2" d="M255.7,225.1c-0.4,0-0.8-0.2-1-0.5l-21.5-25.8l-21.5,25.8c-0.5,0.6-1.3,0.6-1.9,0.2 c-0.6-0.5-0.6-1.3-0.2-1.9l22.5-27c0.5-0.6,1.5-0.6,2,0l22.5,27c0.5,0.6,0.4,1.4-0.2,1.9C256.3,225,256,225.1,255.7,225.1z"/>
      </g>
    </g>
  </g>
</svg>